<svg width="48" height="44" viewBox="0 0 48 44" fill="none" xmlns="https://www.w3.org/2000/svg"><path fill="#00796a" d="M12.8161 18.3334C12.3765 18.3334 11.9546 18.3958 11.5347 18.4526C11.6707 18.0273 11.8107 17.5946 12.0355 17.2059C12.2602 16.6413 12.6111 16.1518 12.96 15.6586C13.2518 15.1251 13.7663 14.7639 14.1448 14.3074C14.5411 13.8638 15.0812 13.5686 15.509 13.2001C15.9289 12.8151 16.479 12.6226 16.9166 12.3513C17.374 12.1074 17.7722 11.8379 18.198 11.7096L19.2606 11.3026L20.195 10.9414L19.2389 7.38843L18.062 7.65243C17.6854 7.74043 17.2261 7.84309 16.7037 7.96593C16.1694 8.05759 15.5997 8.30876 14.9649 8.53793C14.338 8.79826 13.6126 8.97426 12.9383 9.39226C12.2602 9.79193 11.4775 10.1256 10.7876 10.6609C10.1193 11.2128 9.31297 11.6913 8.71761 12.3934C8.06705 13.0498 7.42438 13.7391 6.92562 14.5238C6.348 15.2718 5.9557 16.0931 5.54171 16.9053C5.16714 17.7174 4.86552 18.5479 4.6191 19.3546C4.15188 20.9716 3.94291 22.5079 3.86209 23.8224C3.79506 25.1388 3.83449 26.2333 3.91729 27.0253C3.94686 27.3993 4.00206 27.7623 4.04148 28.0134L4.09077 28.3214L4.14202 28.3104C4.49266 29.8336 5.29983 31.2334 6.47016 32.3477C7.64049 33.4621 9.12616 34.2456 10.7553 34.6076C12.3845 34.9696 14.0905 34.8952 15.6761 34.3931C17.2617 33.891 18.6621 32.9817 19.7152 31.7704C20.7683 30.5591 21.4312 29.0953 21.6271 27.5483C21.823 26.0013 21.5439 24.4343 20.8222 23.0286C20.1004 21.6229 18.9655 20.436 17.5487 19.6051C16.1319 18.7742 14.4911 18.3333 12.8161 18.3334ZM34.5014 18.3334C34.0617 18.3334 33.6399 18.3958 33.22 18.4526C33.356 18.0273 33.496 17.5946 33.7207 17.2059C33.9454 16.6413 34.2963 16.1518 34.6453 15.6586C34.937 15.1251 35.4516 14.7639 35.8301 14.3074C36.2263 13.8638 36.7665 13.5686 37.1943 13.2001C37.6142 12.8151 38.1642 12.6226 38.6018 12.3513C39.0592 12.1074 39.4574 11.8379 39.8832 11.7096L40.9458 11.3026L41.8803 10.9414L40.9241 7.38843L39.7472 7.65243C39.3707 7.74043 38.9114 7.84309 38.3889 7.96593C37.8547 8.05759 37.285 8.30876 36.6502 8.53793C36.0252 8.80009 35.2978 8.97426 34.6236 9.39409C33.9454 9.79376 33.1628 10.1274 32.4728 10.6628C31.8045 11.2146 30.9982 11.6931 30.4028 12.3934C29.7523 13.0498 29.1096 13.7391 28.6109 14.5238C28.0332 15.2718 27.6409 16.0931 27.2269 16.9053C26.8524 17.7174 26.5508 18.5479 26.3043 19.3546C25.8371 20.9716 25.6282 22.5079 25.5473 23.8224C25.4803 25.1388 25.5197 26.2333 25.6025 27.0253C25.6321 27.3993 25.6873 27.7623 25.7267 28.0134L25.776 28.3214L25.8273 28.3104C26.1779 29.8336 26.9851 31.2334 28.1554 32.3477C29.3257 33.4621 30.8114 34.2456 32.4405 34.6076C34.0697 34.9696 35.7758 34.8952 37.3614 34.3931C38.947 33.891 40.3473 32.9817 41.4004 31.7704C42.4536 30.5591 43.1164 29.0953 43.3123 27.5483C43.5082 26.0013 43.2291 24.4343 42.5074 23.0286C41.7857 21.6229 40.6508 20.436 39.234 19.6051C37.8172 18.7742 36.1764 18.3333 34.5014 18.3334Z"></path></svg>